<?xml version="1.0" encoding="utf-8"?>
<!-- Generator: Adobe Illustrator 26.0.3, SVG Export Plug-In . SVG Version: 6.00 Build 0)  -->
<svg version="1.1" id="레이어_1" xmlns="http://www.w3.org/2000/svg" xmlns:xlink="http://www.w3.org/1999/xlink" x="0px"
	 y="0px" viewBox="0 0 448 416" style="enable-background:new 0 0 448 416;" xml:space="preserve">
<style type="text/css">
	.st0{fill:#656666;}
</style>
<g>
	<path class="st0" d="M96,80c8.84,0,16-7.16,16-16V16c0-8.84-7.16-16-16-16S80,7.16,80,16v48C80,72.84,87.16,80,96,80z M48,384h352
		c8.81,0,16-7.19,16-16V144H32v224C32,376.81,39.19,384,48,384z M400,416H48c-26.5,0-48-21.47-48-48V80c0-26.5,21.5-48,48-48h16
		v33.59c0,17.66,14.34,32,32,32s32-14.34,32-32V32h64v33.59c0,17.66,14.34,32,32,32c17.66,0,32-14.34,32-32V32h64v33.59
		c0,17.66,14.34,32,32,32c17.66,0,32-14.34,32-32V32h16c26.5,0,48,21.5,48,48v288C448,394.53,426.5,416,400,416z M352,80
		c8.84,0,16-7.16,16-16V16c0-8.84-7.16-16-16-16c-8.84,0-16,7.16-16,16v48C336,72.84,343.16,80,352,80z M208,64V16
		c0-8.84,7.16-16,16-16c8.84,0,16,7.16,16,16v48c0,8.84-7.16,16-16,16C215.16,80,208,72.84,208,64z"/>
</g>
<path class="st0" d="M298.15,295.12c0-2.23,1.8-4.02,4.02-4.02h32.22c2.22,0,4.02,1.8,4.02,4.02v32.22c0,2.23-1.8,4.02-4.02,4.02
	h-32.22c-2.22,0-4.02-1.8-4.02-4.02V295.12z M298.15,344.79h40.26c7.41,0,13.42-6,13.42-13.42V291.1c0-7.42-6.01-13.42-13.42-13.42
	h-40.26c-7.41,0-13.42,6-13.42,13.42v40.26C284.73,338.78,290.74,344.79,298.15,344.79z M204.21,295.12c0-2.23,1.8-4.02,4.02-4.02
	h32.22c2.22,0,4.02,1.8,4.02,4.02v32.22c0,2.23-1.8,4.02-4.02,4.02h-32.22c-2.22,0-4.02-1.8-4.02-4.02V295.12z M204.21,344.79h40.26
	c7.41,0,13.42-6,13.42-13.42V291.1c0-7.42-6.01-13.42-13.42-13.42h-40.26c-7.41,0-13.42,6-13.42,13.42v40.26
	C190.78,338.78,196.79,344.79,204.21,344.79z M110.26,295.12c0-2.23,1.8-4.02,4.02-4.02h32.22c2.22,0,4.02,1.8,4.02,4.02v32.22
	c0,2.23-1.8,4.02-4.02,4.02h-32.22c-2.22,0-4.02-1.8-4.02-4.02V295.12z M110.26,344.79h40.26c7.41,0,13.42-6,13.42-13.42V291.1
	c0-7.42-6.01-13.42-13.42-13.42h-40.26c-7.41,0-13.42,6-13.42,13.42v40.26C96.84,338.78,102.85,344.79,110.26,344.79z M298.15,202.6
	c0-2.23,1.8-4.02,4.02-4.02h32.22c2.22,0,4.02,1.8,4.02,4.02v32.22c0,2.23-1.8,4.02-4.02,4.02h-32.22c-2.22,0-4.02-1.8-4.02-4.02
	V202.6z M298.15,252.26h40.26c7.41,0,13.42-6,13.42-13.42v-40.26c0-7.42-6.01-13.42-13.42-13.42h-40.26c-7.41,0-13.42,6-13.42,13.42
	v40.26C284.73,246.26,290.74,252.26,298.15,252.26z M204.21,202.6c0-2.23,1.8-4.02,4.02-4.02h32.22c2.22,0,4.02,1.8,4.02,4.02v32.22
	c0,2.23-1.8,4.02-4.02,4.02h-32.22c-2.22,0-4.02-1.8-4.02-4.02V202.6z M204.21,252.26h40.26c7.41,0,13.42-6,13.42-13.42v-40.26
	c0-7.42-6.01-13.42-13.42-13.42h-40.26c-7.41,0-13.42,6-13.42,13.42v40.26C190.78,246.26,196.79,252.26,204.21,252.26z
	 M110.26,202.6c0-2.23,1.8-4.02,4.02-4.02h32.22c2.22,0,4.02,1.8,4.02,4.02v32.22c0,2.23-1.8,4.02-4.02,4.02h-32.22
	c-2.22,0-4.02-1.8-4.02-4.02V202.6z M110.26,252.26h40.26c7.41,0,13.42-6,13.42-13.42v-40.26c0-7.42-6.01-13.42-13.42-13.42h-40.26
	c-7.41,0-13.42,6-13.42,13.42v40.26C96.84,246.26,102.85,252.26,110.26,252.26z"/>
</svg>
