<?xml version="1.0" encoding="utf-8"?>
<!-- Generator: Adobe Illustrator 26.0.3, SVG Export Plug-In . SVG Version: 6.00 Build 0)  -->
<svg version="1.1" id="레이어_1" xmlns="http://www.w3.org/2000/svg" xmlns:xlink="http://www.w3.org/1999/xlink" x="0px"
     y="0px" viewBox="0 0 139.3 135.08" style="enable-background:new 0 0 139.3 135.08;" xml:space="preserve">
<style type="text/css">
	.st0{fill-rule:evenodd;clip-rule:evenodd;fill:#333333;}
</style>
    <path class="st0" d="M115.46,120.2H16.14c-1.17,0-2.42-0.94-2.42-2.42V45.26h-5.5v80.2h107.33v-7.27L115.46,120.2z M122.1,6.64
	c-4.22,0-7.82,3.6-7.82,7.82c0,4.22,3.6,7.82,7.82,7.82c4.22,0,7.82-3.6,7.82-7.82C129.92,10.24,126.33,6.64,122.1,6.64z
	 M37.13,75.36h80.75v13.84H37.13V75.36z M37.13,49.17h80.75v13.84H37.13V49.17z M18.14,0h118.74c1.17,0,2.42,0.94,2.42,2.42v113.66
	c0,1.17-0.94,2.42-2.42,2.42h-13.29v14.15c0,1.17-0.94,2.42-2.42,2.42H2.42c-1.17,0-2.42-0.94-2.42-2.42V19
	c0-1.17,0.94-2.42,2.42-2.42h13.29V2.42C15.71,1.25,16.65,0,18.14,0z"/>
</svg>
