<?xml version="1.0" encoding="utf-8"?>
<!-- Generator: Adobe Illustrator 26.0.3, SVG Export Plug-In . SVG Version: 6.00 Build 0)  -->
<svg version="1.1" id="레이어_1" xmlns="http://www.w3.org/2000/svg" xmlns:xlink="http://www.w3.org/1999/xlink" x="0px"
     y="0px" viewBox="0 0 18 20.1" style="enable-background:new 0 0 18 20.1;" xml:space="preserve">
<style type="text/css">
	.st0{fill:#FFFFFF;}
</style>
    <path class="st0" d="M9,0C4.05,0,0,4.05,0,9v2.25C0,13.35,1.65,15,3.75,15c0.45,0,0.75-0.3,0.75-0.75v-6C4.5,7.8,4.2,7.5,3.75,7.5
	c-0.82,0-1.57,0.3-2.18,0.75C1.95,4.5,5.18,1.5,9,1.5c3.82,0,7.05,2.93,7.43,6.75c-0.6-0.45-1.35-0.75-2.18-0.75
	c-0.45,0-0.75,0.3-0.75,0.75v6c0,0.45,0.3,0.75,0.75,0.75s0.98-0.07,1.35-0.3c-0.82,1.5-2.1,2.7-3.68,3.38
	c-0.15-0.9-0.9-1.65-1.88-1.65c-0.98,0-1.8,0.82-1.8,1.8c0,0.52,0.23,1.05,0.68,1.43c0.38,0.3,0.75,0.45,1.2,0.45h0.3
	C14.7,19.5,18,15.68,18,11.25V9C18,4.05,13.95,0,9,0z"/>
</svg>
