<?xml version="1.0" encoding="utf-8"?>
<!-- Generator: Adobe Illustrator 26.0.3, SVG Export Plug-In . SVG Version: 6.00 Build 0)  -->
<svg version="1.1" id="레이어_1" xmlns="http://www.w3.org/2000/svg" xmlns:xlink="http://www.w3.org/1999/xlink" x="0px"
	 y="0px" viewBox="0 0 9.89 9.47" style="enable-background:new 0 0 9.89 9.47;" xml:space="preserve">
<style type="text/css">
	.st0{fill:#FFFFFF;}
</style>
<path class="st0" d="M9.75,3.59C9.17,3.63,8.58,3.35,8.27,2.81C7.96,2.27,8.01,1.63,8.34,1.15C7.78,0.62,7.11,0.22,6.36,0
	C6.1,0.53,5.57,0.89,4.94,0.89S3.79,0.53,3.53,0C2.78,0.22,2.11,0.62,1.55,1.15c0.33,0.48,0.37,1.13,0.06,1.67
	C1.3,3.35,0.72,3.63,0.14,3.59C0.05,3.96,0,4.34,0,4.73s0.05,0.78,0.14,1.14C0.72,5.84,1.3,6.12,1.61,6.66
	C1.92,7.2,1.88,7.84,1.55,8.32c0.55,0.52,1.23,0.92,1.98,1.15c0.26-0.53,0.79-0.89,1.41-0.89S6.1,8.94,6.36,9.47
	c0.75-0.22,1.42-0.62,1.98-1.15C8.01,7.84,7.96,7.2,8.27,6.66c0.31-0.54,0.89-0.82,1.48-0.78c0.09-0.37,0.14-0.75,0.14-1.14
	S9.84,3.96,9.75,3.59z M4.94,6.31c-0.87,0-1.58-0.71-1.58-1.58s0.71-1.58,1.58-1.58s1.58,0.71,1.58,1.58S5.82,6.31,4.94,6.31z"/>
</svg>
