<svg xmlns="http://www.w3.org/2000/svg" xmlns:xlink="http://www.w3.org/1999/xlink" width="62" height="24" viewBox="0 0 62 24">
    <defs>
        <path id="a" d="M.066.049h12.877V15.9H.066z"/>
        <path id="c" d="M.013.047h18.923v21.937H.013z"/>
        <path id="e" d="M0 .047h12.89v10.88H0z"/>
        <path id="g" d="M.079.065h11.053V10.4H.079z"/>
        <path id="i" d="M0 23h61.923V.047H0z"/>
        <path id="k" d="M.07.048h6.848v8.875H.07z"/>
    </defs>
    <g fill="none" fill-rule="evenodd">
        <g transform="translate(23)">
            <mask id="b" fill="#fff">
                <use xlink:href="#a"/>
            </mask>
            <path fill="#FEFEFE" d="M11.57 15.9c-.388 0-.775-.178-1.047-.523L.393 2.488C-.099 1.864-.028.93.55.401c.578-.53 1.444-.453 1.935.17l10.13 12.89c.491.623.42 1.558-.158 2.088a1.31 1.31 0 0 1-.888.351" mask="url(#b)"/>
        </g>
        <path fill="#FEFEFE" d="M35.5 16c-.828 0-1.5-.669-1.5-1.495V1.495C34 .669 34.672 0 35.5 0S37 .67 37 1.495v13.01c0 .826-.672 1.495-1.5 1.495M24.5 16c-.828 0-1.5-.669-1.5-1.495V1.495C23 .669 23.672 0 24.5 0c.829 0 1.5.67 1.5 1.495v13.01c0 .826-.671 1.495-1.5 1.495"/>
        <g transform="translate(3)">
            <mask id="d" fill="#fff">
                <use xlink:href="#c"/>
            </mask>
            <path fill="#FEFEFE" d="M1.432 21.984a1.41 1.41 0 0 0 1.083-.509L18.6 2.421A1.456 1.456 0 0 0 18.435.39a1.404 1.404 0 0 0-2 .167L.35 19.61a1.457 1.457 0 0 0 .164 2.032c.267.23.593.342.918.342" mask="url(#d)"/>
        </g>
        <path fill="#FEFEFE" d="M20.5 16c.829 0 1.5-.669 1.5-1.495V1.495C22 .669 21.329 0 20.5 0S19 .67 19 1.495v13.01c0 .826.671 1.495 1.5 1.495M1.5 16C.67 16 0 15.33 0 14.503V1.497C0 .67.671 0 1.5 0 2.328 0 3 .67 3 1.497v13.006C3 15.33 2.328 16 1.5 16"/>
        <g>
            <mask id="f" fill="#fff">
                <use xlink:href="#e"/>
            </mask>
            <path fill="#FEFEFE" d="M7.056.047H1.538C.688.047 0 .69 0 1.481c0 .792.688 1.435 1.538 1.435h5.518c1.52 0 2.758 1.154 2.758 2.572 0 1.418-1.237 2.571-2.758 2.571H1.538C.688 8.06 0 8.702 0 9.493c0 .793.688 1.435 1.538 1.435h5.518c3.216 0 5.834-2.44 5.834-5.44 0-3-2.618-5.44-5.834-5.44" mask="url(#f)"/>
        </g>
        <path fill="#FEFEFE" d="M46.562 12.81c-2.676 0-4.854-2.249-4.854-5.013 0-2.765 2.178-5.014 4.854-5.014s4.854 2.249 4.854 5.014c0 2.764-2.178 5.014-4.854 5.014m0-12.763c-4.137 0-7.502 3.476-7.502 7.749s3.365 7.749 7.502 7.749 7.503-3.476 7.503-7.75c0-4.272-3.366-7.748-7.503-7.748"/>
        <g transform="translate(45.02 12.773)">
            <mask id="h" fill="#fff">
                <use xlink:href="#g"/>
            </mask>
            <path fill="#FEFEFE" d="M6.13.065H1.397C.67.065.08.675.08 1.427c0 .753.59 1.363 1.318 1.363H6.13c1.303 0 2.364 1.096 2.364 2.443 0 1.346-1.061 2.442-2.364 2.442H1.397C.67 7.675.08 8.285.08 9.037c0 .752.59 1.362 1.318 1.362H6.13c2.758 0 5.002-2.317 5.002-5.166 0-2.85-2.244-5.168-5.002-5.168" mask="url(#h)"/>
        </g>
        <path fill="#FEFEFE" d="M52.163 12.945a4.847 4.847 0 0 0-1.014-.107h-4.732c-.728 0-1.319.61-1.319 1.362 0 .656.449 1.203 1.045 1.333.139.008.278.013.419.013 2.225 0 4.226-1.006 5.601-2.6"/>
        <g>
            <path fill="#FEFEFE" d="M14.15 19.49l-.859 3.318h-.811l-.458-1.743a2.563 2.563 0 0 1-.036-.153l-.047-.223-.047-.228a1.458 1.458 0 0 1-.026-.172c-.003.044-.012.101-.026.172l-.045.226a9.533 9.533 0 0 1-.085.383l-.453 1.738h-.812l-.859-3.318h.704l.43 1.812a12.154 12.154 0 0 1 .165.869c.009-.077.023-.17.042-.276.019-.107.038-.21.059-.312.02-.1.038-.178.054-.234l.49-1.859h.676l.49 1.859c.016.056.034.134.055.234a11.833 11.833 0 0 1 .101.588 7.737 7.737 0 0 1 .106-.597l.06-.272.43-1.812h.702zM15.963 20.717a.464.464 0 0 0-.34.13c-.088.087-.14.222-.156.404h.987a.62.62 0 0 0-.125-.38c-.08-.103-.202-.154-.366-.154m-.005-.493c.356 0 .637.1.845.3.208.2.312.484.312.853v.334h-1.662c.006.195.065.349.177.46.112.112.267.167.465.167.164 0 .314-.016.45-.048.138-.033.278-.083.423-.151v.534a1.77 1.77 0 0 1-.401.137c-.138.03-.307.044-.505.044-.258 0-.486-.047-.684-.141a1.066 1.066 0 0 1-.468-.428c-.113-.19-.17-.433-.17-.727s.052-.54.154-.739c.102-.198.245-.347.427-.446.182-.099.395-.149.637-.149M19.366 20.777c-.183 0-.312.057-.387.17-.076.113-.115.283-.118.509v.074c0 .245.037.433.11.565.075.131.21.197.404.197.145 0 .26-.066.345-.197.085-.132.127-.322.127-.57 0-.247-.043-.434-.13-.56a.406.406 0 0 0-.351-.188zm-.505-1.5v.822a4.211 4.211 0 0 1-.029.502h.029a.893.893 0 0 1 .278-.267.843.843 0 0 1 .453-.11c.29 0 .524.111.704.333.179.221.269.547.269.978 0 .433-.092.762-.274.985a.882.882 0 0 1-.717.334c-.19 0-.338-.033-.446-.1a1.061 1.061 0 0 1-.267-.225h-.047l-.118.279h-.538v-3.531h.703zM25.36 21.888a.86.86 0 0 1-.323.704c-.216.175-.522.262-.918.262-.356 0-.674-.066-.954-.2V22c.16.068.327.131.498.189.172.057.342.085.512.085.177 0 .302-.033.376-.1a.326.326 0 0 0 .11-.253.292.292 0 0 0-.087-.213.942.942 0 0 0-.233-.165 8.536 8.536 0 0 0-.336-.165 4.213 4.213 0 0 1-.254-.133 1.413 1.413 0 0 1-.262-.19.917.917 0 0 1-.206-.277.875.875 0 0 1-.08-.39c0-.297.102-.529.307-.695.204-.165.483-.248.835-.248.176 0 .343.02.5.06.158.04.325.098.5.172l-.23.548a4.017 4.017 0 0 0-.416-.144 1.403 1.403 0 0 0-.377-.05.466.466 0 0 0-.312.092.303.303 0 0 0-.108.242c0 .118.053.21.16.278.107.069.266.152.477.251.173.081.32.165.441.251a.949.949 0 0 1 .28.307c.067.118.1.263.1.437M27.456 20.717a.464.464 0 0 0-.34.13c-.088.087-.14.222-.156.404h.986a.62.62 0 0 0-.125-.38c-.08-.103-.202-.154-.365-.154m-.005-.493c.356 0 .637.1.845.3.207.2.311.484.311.853v.334h-1.661c.006.195.065.349.177.46.112.112.267.167.465.167.163 0 .314-.016.45-.048.137-.033.278-.083.423-.151v.534a1.77 1.77 0 0 1-.401.137c-.139.03-.307.044-.505.044-.258 0-.486-.047-.685-.141a1.066 1.066 0 0 1-.467-.428c-.113-.19-.17-.433-.17-.727s.051-.54.154-.739c.102-.198.244-.347.427-.446.182-.099.395-.149.637-.149M31.09 20.224c.034 0 .075.002.123.005a.804.804 0 0 1 .113.014l-.052.65a.96.96 0 0 0-.552.04c-.11.042-.2.11-.267.202a.636.636 0 0 0-.101.381v1.292h-.704V20.27h.534l.103.427h.034c.075-.13.179-.241.311-.334a.776.776 0 0 1 .458-.14M32.879 22.808l-.982-2.537h.736l.496 1.445c.028.087.05.176.066.27.016.092.027.176.033.25h.019a2 2 0 0 1 .104-.52l.495-1.445h.737l-.982 2.537h-.722z"/>
            <mask id="j" fill="#fff">
                <use xlink:href="#i"/>
            </mask>
            <path fill="#FEFEFE" d="M35.423 22.808h.703V20.27h-.703v2.537zm.354-3.531c.103 0 .193.024.269.072.075.048.113.137.113.267 0 .127-.038.215-.113.265a.48.48 0 0 1-.27.074.477.477 0 0 1-.27-.074c-.075-.05-.112-.138-.112-.265 0-.13.037-.22.111-.267a.488.488 0 0 1 .272-.072zM38.382 22.854c-.384 0-.68-.104-.89-.311-.21-.208-.314-.537-.314-.99 0-.31.054-.562.16-.757.108-.195.257-.34.447-.432.19-.093.41-.14.658-.14a1.833 1.833 0 0 1 .803.172l-.208.535a3.608 3.608 0 0 0-.309-.107 1.023 1.023 0 0 0-.286-.042c-.365 0-.547.256-.547.767 0 .254.048.441.144.562.096.12.23.181.403.181.148 0 .279-.02.392-.058.113-.039.223-.092.33-.16v.59c-.107.068-.219.117-.337.146a1.88 1.88 0 0 1-.446.044M41.299 20.717a.464.464 0 0 0-.34.13c-.088.087-.14.222-.156.404h.987a.62.62 0 0 0-.125-.38c-.08-.103-.202-.154-.366-.154m-.005-.493c.356 0 .637.1.845.3.208.2.311.484.311.853v.334h-1.66c.005.195.064.349.176.46.112.112.267.167.465.167.164 0 .314-.016.45-.048.138-.033.278-.083.423-.151v.534a1.77 1.77 0 0 1-.401.137c-.138.03-.307.044-.505.044-.258 0-.486-.047-.684-.141a1.066 1.066 0 0 1-.468-.428c-.113-.19-.17-.433-.17-.727s.052-.54.154-.739a1.03 1.03 0 0 1 .427-.446c.182-.099.395-.149.637-.149" mask="url(#j)"/>
        </g>
        <g transform="translate(55)">
            <mask id="l" fill="#fff">
                <use xlink:href="#k"/>
            </mask>
            <path fill="#FEFEFE" d="M6.041 7.267H3.122c.368-.297.72-.563 1.052-.813.447-.338.833-.629 1.173-.935C6.543 4.443 6.942 3.152 6.44 1.98 5.971.878 4.726.049 3.543.049h-.01C2.213.053 1.022.686.425 1.7c-.235.4-.083.904.341 1.126.135.07.28.104.425.104a.886.886 0 0 0 .768-.426c.216-.367.76-.797 1.58-.8h.004c.421 0 1.046.366 1.271.895.283.663-.212 1.303-.678 1.722a16.63 16.63 0 0 1-1.058.84c-.777.586-1.746 1.316-2.777 2.374l-.013.015a.576.576 0 0 0-.031.036l-.024.03a1.117 1.117 0 0 0-.026.036l-.021.033-.02.037-.019.035a.594.594 0 0 0-.044.115 1.447 1.447 0 0 0-.025.119.643.643 0 0 0-.007.082v.04l.002.04.004.044.006.034a.697.697 0 0 0 .032.125l.011.03.019.044.016.03.022.041.02.031a.816.816 0 0 0 .049.066l.03.036a.773.773 0 0 0 .06.06c.004.004.008.008.012.01l.016.014a.6.6 0 0 0 .068.05.722.722 0 0 0 .106.062.712.712 0 0 0 .075.033l.043.015.037.011.044.011.037.008a.794.794 0 0 0 .05.007l.032.004a1 1 0 0 0 .085.004h5.094c.485 0 .877-.37.877-.827 0-.458-.392-.829-.877-.829" mask="url(#l)"/>
        </g>
    </g>
</svg>
